<svg width="30" height="31" viewBox="0 0 30 31" fill="none" xmlns="http://www.w3.org/2000/svg">
<g id="Icons">
<mask id="mask0_130076_165" style="mask-type:alpha" maskUnits="userSpaceOnUse" x="-1" y="0" width="31" height="31">
<rect id="Bounding box" x="-0.00146484" y="0.98291" width="30" height="30" fill="#D9D9D9"/>
</mask>
<g mask="url(#mask0_130076_165)">
<path id="edit_square" d="M4.62506 28.1853C3.95433 28.1853 3.38014 27.9465 2.9025 27.4688C2.42486 26.9912 2.18604 26.417 2.18604 25.7462V8.67308C2.18604 8.00235 2.42486 7.42816 2.9025 6.95052C3.38014 6.47287 3.95433 6.23405 4.62506 6.23405H15.5092L13.0702 8.67308H4.62506V25.7462H21.6982V17.2706L24.1373 14.8316V25.7462C24.1373 26.417 23.8984 26.9912 23.4208 27.4688C22.9431 27.9465 22.369 28.1853 21.6982 28.1853H4.62506ZM18.2531 6.93527L19.9909 8.64259L11.9421 16.6914V18.4292H13.6495L21.7287 10.3499L23.4665 12.0572L15.3873 20.1365C15.1637 20.3601 14.9045 20.5379 14.6098 20.67C14.3151 20.8021 14.0051 20.8682 13.6799 20.8682H10.7226C10.3771 20.8682 10.0875 20.7513 9.85372 20.5176C9.61998 20.2839 9.50311 19.9942 9.50311 19.6487V16.6914C9.50311 16.3662 9.56408 16.0562 9.68604 15.7615C9.80799 15.4668 9.98075 15.2076 10.2043 14.9841L18.2531 6.93527ZM23.4665 12.0572L18.2531 6.93527L21.3019 3.88649C21.7897 3.39869 22.374 3.15479 23.0549 3.15479C23.7358 3.15479 24.31 3.39869 24.7775 3.88649L26.4848 5.6243C26.9523 6.09178 27.186 6.66088 27.186 7.33161C27.186 8.00235 26.9523 8.57145 26.4848 9.03893L23.4665 12.0572Z" fill="white"/>
</g>
</g>
</svg>
