<svg width="30" height="31" viewBox="0 0 30 31" fill="none" xmlns="http://www.w3.org/2000/svg">
<g id="Icons">
<mask id="mask0_130076_177" style="mask-type:alpha" maskUnits="userSpaceOnUse" x="-1" y="0" width="31" height="31">
<rect id="Bounding box" x="-0.00146484" y="0.98291" width="30" height="30" fill="#D9D9D9"/>
</mask>
<g mask="url(#mask0_130076_177)">
<path id="perm_contact_calendar" d="M14.9985 23.4829C13.8319 23.4829 12.7173 23.6652 11.6548 24.0298C10.5923 24.3944 9.62354 24.9412 8.74854 25.6704V25.9829H21.2485V25.6704C20.3735 24.9412 19.4048 24.3944 18.3423 24.0298C17.2798 23.6652 16.1652 23.4829 14.9985 23.4829ZM6.24854 24.5454C7.37354 23.4412 8.68083 22.5715 10.1704 21.936C11.66 21.3006 13.2694 20.9829 14.9985 20.9829C16.7277 20.9829 18.3371 21.3006 19.8267 21.936C21.3162 22.5715 22.6235 23.4412 23.7485 24.5454V8.48291H6.24854V24.5454ZM14.9985 18.4829C13.7902 18.4829 12.759 18.0558 11.9048 17.2017C11.0506 16.3475 10.6235 15.3162 10.6235 14.1079C10.6235 12.8996 11.0506 11.8683 11.9048 11.0142C12.759 10.16 13.7902 9.73291 14.9985 9.73291C16.2069 9.73291 17.2381 10.16 18.0923 11.0142C18.9465 11.8683 19.3735 12.8996 19.3735 14.1079C19.3735 15.3162 18.9465 16.3475 18.0923 17.2017C17.2381 18.0558 16.2069 18.4829 14.9985 18.4829ZM14.9985 15.9829C15.5194 15.9829 15.9621 15.8006 16.3267 15.436C16.6912 15.0715 16.8735 14.6287 16.8735 14.1079C16.8735 13.5871 16.6912 13.1444 16.3267 12.7798C15.9621 12.4152 15.5194 12.2329 14.9985 12.2329C14.4777 12.2329 14.035 12.4152 13.6704 12.7798C13.3058 13.1444 13.1235 13.5871 13.1235 14.1079C13.1235 14.6287 13.3058 15.0715 13.6704 15.436C14.035 15.8006 14.4777 15.9829 14.9985 15.9829ZM6.24854 28.4829C5.56104 28.4829 4.97249 28.2381 4.48291 27.7485C3.99333 27.259 3.74854 26.6704 3.74854 25.9829V8.48291C3.74854 7.79541 3.99333 7.20687 4.48291 6.71729C4.97249 6.2277 5.56104 5.98291 6.24854 5.98291H7.49854V3.48291H9.99854V5.98291H19.9985V3.48291H22.4985V5.98291H23.7485C24.436 5.98291 25.0246 6.2277 25.5142 6.71729C26.0037 7.20687 26.2485 7.79541 26.2485 8.48291V25.9829C26.2485 26.6704 26.0037 27.259 25.5142 27.7485C25.0246 28.2381 24.436 28.4829 23.7485 28.4829H6.24854Z" fill="#CDCDCD"/>
</g>
</g>
</svg>
