<svg width="30" height="26" viewBox="0 0 30 26" fill="none" xmlns="http://www.w3.org/2000/svg">
<g id="Vector">
<path d="M22.9531 2.75564L22.9531 23.21C22.9525 23.8125 22.7129 24.3903 22.2868 24.8163C21.8607 25.2424 21.283 25.4821 20.6804 25.4827L16.135 25.4827C15.5324 25.4821 14.9547 25.2424 14.5286 24.8163C14.1025 24.3903 13.8629 23.8125 13.8623 23.21L13.8623 2.75564C13.8629 2.15306 14.1025 1.57534 14.5286 1.14926C14.9547 0.723172 15.5324 0.483533 16.135 0.48293L20.6804 0.48293C21.283 0.483533 21.8607 0.723172 22.2868 1.14926C22.7129 1.57534 22.9525 2.15306 22.9531 2.75564ZM16.135 23.21L20.6804 23.21L20.6804 2.75564L16.135 2.75564L16.135 23.21ZM16.135 2.75564L16.135 23.21C16.1344 23.8125 15.8948 24.3902 15.4687 24.8163C15.0426 25.2424 14.4649 25.482 13.8623 25.4826L9.31689 25.4826C8.71431 25.482 8.13659 25.2424 7.71051 24.8163C7.28442 24.3902 7.04479 23.8125 7.04418 23.2099L7.04418 2.75561C7.04478 2.15304 7.28442 1.57532 7.71051 1.14923C8.13659 0.723148 8.71431 0.483513 9.31689 0.48291L13.8623 0.48291C14.4649 0.483512 15.0426 0.723148 15.4687 1.14923C15.8948 1.57532 16.1344 2.15306 16.135 2.75564ZM9.31689 23.2099L13.8623 23.21L13.8623 2.75564L9.31689 2.75561L9.31689 23.2099ZM9.31689 2.75561L9.31689 23.2099C9.31629 23.8125 9.07665 24.3902 8.65056 24.8163C8.22448 25.2424 7.64676 25.482 7.04418 25.4826L2.49878 25.4826C1.8962 25.482 1.31848 25.2424 0.892398 24.8163C0.466314 24.3902 0.226676 23.8125 0.226074 23.2099L0.226073 2.75561C0.226675 2.15304 0.466313 1.57532 0.892397 1.14923C1.31848 0.723148 1.8962 0.483513 2.49878 0.48291L7.04418 0.48291C7.64676 0.483513 8.22448 0.723148 8.65056 1.14923C9.07665 1.57532 9.31629 2.15304 9.31689 2.75561ZM2.49878 23.2099L7.04418 23.2099L7.04418 2.75561L2.49878 2.75561L2.49878 23.2099Z" fill="#CDCDCD"/>
<path d="M29.7712 2.75589L29.7712 23.2102C29.7706 23.8128 29.531 24.3905 29.1049 24.8166C28.6788 25.2427 28.1011 25.4823 27.4985 25.4829L22.9531 25.4829C22.3505 25.4823 21.7728 25.2427 21.3467 24.8166C20.9206 24.3905 20.681 23.8125 20.6804 23.21L20.6804 2.75564C20.681 2.15306 20.9206 1.57559 21.3467 1.14951C21.7728 0.723424 22.3505 0.483787 22.9531 0.483184L27.4985 0.483184C28.1011 0.483786 28.6788 0.723424 29.1049 1.14951C29.531 1.57559 29.7706 2.15331 29.7712 2.75589ZM22.9531 23.21L27.4985 23.2102L27.4985 2.75589L22.9531 2.75564L22.9531 23.21Z" fill="#CDCDCD"/>
</g>
</svg>
