<svg width="145" height="65" viewBox="0 0 145 65" fill="none" xmlns="http://www.w3.org/2000/svg">
<g filter="url(#filter0_d_156_1095)">
<rect x="4.85547" y="4.19165" width="136" height="56" rx="10" fill="#FF3D00"/>
<path d="M34.1165 24.9189H37.3455V34.8372C37.3455 35.9509 37.0795 36.9253 36.5476 37.7605C36.0206 38.5958 35.2823 39.247 34.3327 39.7144C33.3832 40.1767 32.277 40.4079 31.0142 40.4079C29.7464 40.4079 28.6378 40.1767 27.6882 39.7144C26.7386 39.247 26.0004 38.5958 25.4734 37.7605C24.9464 36.9253 24.6829 35.9509 24.6829 34.8372V24.9189H27.9119V34.5613C27.9119 35.143 28.0387 35.66 28.2923 36.1125C28.5508 36.5649 28.9137 36.9203 29.381 37.1789C29.8484 37.4374 30.3928 37.5667 31.0142 37.5667C31.6406 37.5667 32.185 37.4374 32.6474 37.1789C33.1147 36.9203 33.4751 36.5649 33.7287 36.1125C33.9872 35.66 34.1165 35.143 34.1165 34.5613V24.9189ZM39.9426 40.1917V28.7371H43.0225V30.7357H43.1418C43.3506 30.0247 43.7011 29.4878 44.1933 29.1249C44.6855 28.757 45.2522 28.573 45.8936 28.573C46.0526 28.573 46.2242 28.583 46.4081 28.6029C46.5921 28.6228 46.7536 28.6501 46.8928 28.6849V31.5038C46.7437 31.4591 46.5374 31.4193 46.2739 31.3845C46.0104 31.3497 45.7693 31.3323 45.5505 31.3323C45.0832 31.3323 44.6656 31.4342 44.2977 31.638C43.9347 31.8369 43.6464 32.1153 43.4326 32.4733C43.2238 32.8312 43.1194 33.2439 43.1194 33.7112V40.1917H39.9426ZM53.1626 44.7257C52.1335 44.7257 51.2511 44.5841 50.5153 44.3007C49.7844 44.0223 49.2028 43.6419 48.7702 43.1597C48.3377 42.6774 48.0568 42.1355 47.9276 41.534L50.8658 41.1387C50.9553 41.3674 51.0969 41.5812 51.2908 41.7801C51.4847 41.9789 51.7408 42.138 52.0589 42.2573C52.3821 42.3816 52.7749 42.4438 53.2372 42.4438C53.9283 42.4438 54.4975 42.2747 54.945 41.9367C55.3974 41.6036 55.6236 41.0443 55.6236 40.2588V38.1632H55.4893C55.3501 38.4814 55.1413 38.7822 54.8629 39.0656C54.5845 39.349 54.2266 39.5801 53.7891 39.7591C53.3516 39.9381 52.8295 40.0276 52.223 40.0276C51.3629 40.0276 50.5799 39.8287 49.8739 39.431C49.1729 39.0283 48.6136 38.4143 48.196 37.589C47.7834 36.7588 47.5771 35.7098 47.5771 34.442C47.5771 33.1444 47.7884 32.0606 48.2109 31.1906C48.6335 30.3206 49.1953 29.6693 49.8963 29.2367C50.6023 28.8042 51.3754 28.588 52.2156 28.588C52.8569 28.588 53.3938 28.6973 53.8263 28.9161C54.2589 29.1299 54.6069 29.3983 54.8704 29.7215C55.1388 30.0397 55.3452 30.3529 55.4893 30.6611H55.6087V28.7371H58.7631V40.3035C58.7631 41.2779 58.5245 42.0933 58.0472 42.7495C57.57 43.4058 56.9087 43.898 56.0636 44.2261C55.2234 44.5592 54.2564 44.7257 53.1626 44.7257ZM53.2298 37.6412C53.7418 37.6412 54.1744 37.5144 54.5273 37.2609C54.8853 37.0024 55.1587 36.6345 55.3477 36.1572C55.5415 35.675 55.6385 35.0983 55.6385 34.4271C55.6385 33.7559 55.544 33.1742 55.3551 32.6821C55.1662 32.1849 54.8928 31.7996 54.5348 31.5262C54.1768 31.2527 53.7418 31.116 53.2298 31.116C52.7077 31.116 52.2678 31.2577 51.9098 31.5411C51.5518 31.8195 51.2809 32.2073 51.0969 32.7044C50.913 33.2016 50.821 33.7758 50.821 34.4271C50.821 35.0883 50.913 35.66 51.0969 36.1423C51.2859 36.6196 51.5568 36.9899 51.9098 37.2534C52.2678 37.512 52.7077 37.6412 53.2298 37.6412ZM66.5114 40.4154C65.3331 40.4154 64.3189 40.1767 63.4688 39.6995C62.6236 39.2172 61.9723 38.5361 61.5149 37.6561C61.0575 36.7712 60.8288 35.7247 60.8288 34.5166C60.8288 33.3383 61.0575 32.3042 61.5149 31.4143C61.9723 30.5244 62.6161 29.8309 63.4464 29.3337C64.2816 28.8365 65.261 28.588 66.3846 28.588C67.1403 28.588 67.8438 28.7098 68.495 28.9534C69.1513 29.192 69.723 29.5524 70.2102 30.0347C70.7024 30.5169 71.0852 31.1235 71.3587 31.8543C71.6321 32.5801 71.7688 33.4303 71.7688 34.4047V35.2772H62.0966V33.3085H68.7784C68.7784 32.8511 68.679 32.4459 68.4801 32.0929C68.2813 31.7399 68.0053 31.464 67.6523 31.2652C67.3043 31.0613 66.8991 30.9594 66.4368 30.9594C65.9545 30.9594 65.527 31.0713 65.1541 31.295C64.7862 31.5137 64.4979 31.8095 64.2891 32.1824C64.0803 32.5503 63.9734 32.9605 63.9684 33.4129V35.2847C63.9684 35.8515 64.0728 36.3412 64.2816 36.7538C64.4954 37.1664 64.7962 37.4846 65.1839 37.7083C65.5717 37.9321 66.0316 38.0439 66.5636 38.0439C66.9165 38.0439 67.2397 37.9942 67.533 37.8948C67.8263 37.7953 68.0774 37.6462 68.2862 37.4473C68.495 37.2485 68.6541 37.0049 68.7635 36.7165L71.7017 36.9104C71.5526 37.6164 71.2468 38.2328 70.7844 38.7598C70.3271 39.2818 69.7354 39.6895 69.0096 39.9828C68.2887 40.2712 67.456 40.4154 66.5114 40.4154ZM77.0188 33.5695V40.1917H73.842V28.7371H76.8697V30.7581H77.0039C77.2575 30.0919 77.6825 29.5649 78.2791 29.1771C78.8757 28.7843 79.5991 28.588 80.4492 28.588C81.2447 28.588 81.9382 28.762 82.5298 29.11C83.1214 29.458 83.5813 29.9551 83.9094 30.6015C84.2376 31.2428 84.4016 32.0084 84.4016 32.8983V40.1917H81.2248V33.4651C81.2298 32.7641 81.0508 32.2172 80.6879 31.8245C80.3249 31.4267 79.8253 31.2279 79.1889 31.2279C78.7614 31.2279 78.3835 31.3198 78.0554 31.5038C77.7322 31.6877 77.4787 31.9562 77.2947 32.3092C77.1158 32.6572 77.0238 33.0773 77.0188 33.5695ZM92.9981 28.7371V31.1235H86.1001V28.7371H92.9981ZM87.6661 25.9928H90.843V36.6718C90.843 36.9651 90.8877 37.1938 90.9772 37.3578C91.0667 37.5169 91.191 37.6288 91.3501 37.6934C91.5141 37.7581 91.703 37.7904 91.9168 37.7904C92.066 37.7904 92.2151 37.7779 92.3643 37.7531C92.5134 37.7233 92.6278 37.7009 92.7073 37.686L93.2069 40.05C93.0479 40.0997 92.8241 40.1568 92.5358 40.2215C92.2474 40.2911 91.8969 40.3333 91.4843 40.3483C90.7187 40.3781 90.0475 40.2762 89.4708 40.0425C88.8991 39.8088 88.4541 39.4459 88.1359 38.9537C87.8177 38.4615 87.6611 37.8401 87.6661 37.0894V25.9928Z" fill="white"/>
<g clip-path="url(#clip0_156_1095)">
<path d="M121.26 39.4466C121.025 39.447 120.797 39.3722 120.608 39.2331L112.356 33.1499L104.104 39.2331C103.988 39.3186 103.856 39.3806 103.716 39.4153C103.577 39.4501 103.431 39.457 103.289 39.4356C103.146 39.4142 103.009 39.3651 102.886 39.2908C102.763 39.2166 102.655 39.1189 102.569 39.0031C102.484 38.8873 102.422 38.7558 102.387 38.6161C102.352 38.4764 102.345 38.3313 102.367 38.1889C102.41 37.9014 102.565 37.6428 102.799 37.47L111.704 30.8995C111.892 30.7599 112.121 30.6846 112.356 30.6846C112.59 30.6846 112.819 30.7599 113.008 30.8995L121.912 37.47C122.098 37.6069 122.236 37.799 122.306 38.0189C122.376 38.2388 122.375 38.4752 122.302 38.6944C122.23 38.9135 122.09 39.1043 121.903 39.2394C121.716 39.3745 121.491 39.447 121.26 39.4466Z" fill="white"/>
<path d="M121.26 33.6975C121.025 33.6979 120.797 33.623 120.608 33.4839L112.356 27.4007L104.104 33.4839C103.87 33.6567 103.577 33.7296 103.289 33.6865C103.001 33.6433 102.742 33.4877 102.569 33.2539C102.396 33.0201 102.323 32.7273 102.367 32.4398C102.41 32.1523 102.565 31.8936 102.799 31.7208L111.704 25.1504C111.892 25.0108 112.121 24.9354 112.356 24.9354C112.59 24.9354 112.819 25.0108 113.008 25.1504L121.912 31.7208C122.098 31.8578 122.236 32.0499 122.306 32.2697C122.376 32.4896 122.375 32.726 122.302 32.9452C122.23 33.1644 122.09 33.3551 121.903 33.4902C121.716 33.6253 121.491 33.6979 121.26 33.6975Z" fill="white"/>
</g>
</g>
<defs>
<filter id="filter0_d_156_1095" x="0.855469" y="0.19165" width="144" height="64" filterUnits="userSpaceOnUse" color-interpolation-filters="sRGB">
<feFlood flood-opacity="0" result="BackgroundImageFix"/>
<feColorMatrix in="SourceAlpha" type="matrix" values="0 0 0 0 0 0 0 0 0 0 0 0 0 0 0 0 0 0 127 0" result="hardAlpha"/>
<feOffset/>
<feGaussianBlur stdDeviation="2"/>
<feColorMatrix type="matrix" values="0 0 0 0 0 0 0 0 0 0 0 0 0 0 0 0 0 0 0.1 0"/>
<feBlend mode="normal" in2="BackgroundImageFix" result="effect1_dropShadow_156_1095"/>
<feBlend mode="normal" in="SourceGraphic" in2="effect1_dropShadow_156_1095" result="shape"/>
</filter>
<clipPath id="clip0_156_1095">
<rect width="20" height="14.5098" fill="white" transform="translate(102.355 24.9368)"/>
</clipPath>
</defs>
</svg>
