<svg width="30" height="31" viewBox="0 0 30 31" fill="none" xmlns="http://www.w3.org/2000/svg">
<g id="Icons">
<path id="Vector" d="M25.2258 3.48291H4.77126H4.49853C3.39397 3.48291 2.49854 4.37864 2.49854 5.48321C2.49854 5.663 2.49854 5.79037 2.49854 5.82288V26.2774V26.4829C2.49854 27.5875 3.39426 28.4829 4.49883 28.4829C4.64231 28.4829 4.74255 28.4829 4.77126 28.4829H25.2258C25.2545 28.4829 25.3548 28.4829 25.4982 28.4829C26.6028 28.4829 27.4985 27.587 27.4985 26.4824C27.4985 26.3756 27.4985 26.3017 27.4985 26.2774V5.82285C27.4985 5.79035 27.4985 5.66299 27.4985 5.48321C27.4985 4.37864 26.6028 3.48291 25.4982 3.48291C25.3548 3.48291 25.2545 3.48291 25.2258 3.48291ZM17.2713 26.2774H4.77126V17.1865H17.2713V26.2774ZM17.2713 14.9138H4.77126V5.82288L17.2713 5.82285V14.9138ZM25.2258 26.2774H19.544V5.82288H25.2258V26.2774Z" fill="#CDCDCD"/>
</g>
</svg>
